<svg width="18" height="26" viewBox="0 0 18 26" fill="none" xmlns="http://www.w3.org/2000/svg">
<g clip-path="url(#clip0_2022_18)">
<path d="M3.65823 3.4986C5.664 3.4986 7.29564 5.13336 7.29564 7.14297V22.3452C7.29564 24.3548 5.664 25.9896 3.65823 25.9896C1.65245 25.9896 0.020813 24.3548 0.020813 22.3452V7.14297C0.020813 5.13336 1.65245 3.4986 3.65823 3.4986Z" fill="url(#paint0_linear_2022_18)"/>
<path d="M14.3626 0C16.3683 0 18 1.63476 18 3.64437V15.6187C18 17.6284 16.3683 19.2631 14.3626 19.2631C12.3568 19.2631 10.7252 17.6284 10.7252 15.6187V3.64437C10.7252 1.63476 12.3568 0 14.3626 0Z" fill="url(#paint1_linear_2022_18)"/>
<path d="M17.9689 15.9625C17.813 16.7955 16.0878 17.7326 15.3188 16.3269C14.6848 15.1607 12.9285 12.4743 12.3465 11.5788L6.98391 1.87436C6.00701 0.114652 3.79338 -0.52051 2.03703 0.458265C-0.363661 1.87436 0.0208655 3.89439 0.0208655 9.20476C0.176755 8.37176 2.03703 7.94485 2.80608 9.35054C3.57514 10.7562 11.0578 24.2716 11.0578 24.2716C12.0347 26.0314 14.9031 26.25 16.0463 25.7398C17.1063 25.2712 17.7507 24.1363 17.8546 22.9284C18.1248 21.5123 17.9169 19.3465 17.9689 15.9625Z" fill="url(#paint2_linear_2022_18)"/>
</g>
<defs>
<linearGradient id="paint0_linear_2022_18" x1="3.66143" y1="3.49753" x2="3.66143" y2="25.9885" gradientUnits="userSpaceOnUse">
<stop offset="0.165" stop-color="#5F5001"/>
<stop offset="1" stop-color="#FDD201"/>
</linearGradient>
<linearGradient id="paint1_linear_2022_18" x1="14.3658" y1="0" x2="14.3658" y2="19.2631" gradientUnits="userSpaceOnUse">
<stop stop-color="#4F8620"/>
<stop offset="1" stop-color="#25430C"/>
</linearGradient>
<linearGradient id="paint2_linear_2022_18" x1="2.19571" y1="1.5013" x2="16.2341" y2="24.2899" gradientUnits="userSpaceOnUse">
<stop stop-color="#FFD403"/>
<stop offset="1" stop-color="#2F5B0B"/>
</linearGradient>
<clipPath id="clip0_2022_18">
<rect width="18" height="26" fill="white"/>
</clipPath>
</defs>
</svg>
